HIERARCHY
ROOT Hips
{
  OFFSET -31.5692 30.0904 122.763
  CHANNELS 6 Xposition Yposition Zposition Zrotation Xrotation Yrotation
  JOINT LeftUpLeg
  {
    OFFSET 8.64259 1.95398 -2.38835
    CHANNELS 3 Zrotation Xrotation Yrotation
    JOINT LeftLeg
    {
      OFFSET 43.7702 0 0
      CHANNELS 3 Zrotation Xrotation Yrotation
      JOINT LeftFoot
      {
        OFFSET 40.6238 0 0
        CHANNELS 3 Zrotation Xrotation Yrotation
        JOINT LeftToeBase
        {
          OFFSET 12.7242 0 0
          CHANNELS 3 Zrotation Xrotation Yrotation
          End Site
          {
            OFFSET 0 0 0
          }
        }
      }
    }
  }
  JOINT RightUpLeg
  {
    OFFSET -8.2249 1.95398 -2.59336
    CHANNELS 3 Zrotation Xrotation Yrotation
    JOINT RightLeg
    {
      OFFSET 43.5653 0 0
      CHANNELS 3 Zrotation Xrotation Yrotation
      JOINT RightFoot
      {
        OFFSET 40.6238 0 0
        CHANNELS 3 Zrotation Xrotation Yrotation
        JOINT RightToeBase
        {
          OFFSET 12.7242 0 0
          CHANNELS 3 Zrotation Xrotation Yrotation
          End Site
          {
            OFFSET 0 0 0
          }
        }
      }
    }
  }
  JOINT Spine
  {
    OFFSET 0.165834 0.87714 6.61349
    CHANNELS 3 Zrotation Xrotation Yrotation
    JOINT Spine1
    {
      OFFSET 7.38963 1.71661e-005 0
      CHANNELS 3 Zrotation Xrotation Yrotation
      JOINT Spine2
      {
        OFFSET 11.9445 1.14441e-005 0
        CHANNELS 3 Zrotation Xrotation Yrotation
        JOINT Spine3
        {
          OFFSET 14.7254 4.19617e-005 0
          CHANNELS 3 Zrotation Xrotation Yrotation
          JOINT Spine4
          {
            OFFSET 10.9679 0 0
            CHANNELS 3 Zrotation Xrotation Yrotation
            JOINT RightShoulder
            {
              OFFSET 2.46616 -1.6653 3.69651
              CHANNELS 3 Zrotation Xrotation Yrotation
              JOINT RightArm
              {
                OFFSET 13.0012 0 0
                CHANNELS 3 Zrotation Xrotation Yrotation
                JOINT RightForeArm
                {
                  OFFSET 28.7848 1.62311e-005 0
                  CHANNELS 3 Zrotation Xrotation Yrotation
                  JOINT RightHand
                  {
                    OFFSET 26.5688 1.62095e-005 0
                    CHANNELS 3 Zrotation Xrotation Yrotation
                    End Site
                    {
                      OFFSET 0 0 0
                    }
                  }
                }
              }
            }
            JOINT LeftShoulder
            {
              OFFSET 2.38034 -1.29275 -3.7523
              CHANNELS 3 Zrotation Xrotation Yrotation
              JOINT LeftArm
              {
                OFFSET 16.3182 6.07031e-005 0
                CHANNELS 3 Zrotation Xrotation Yrotation
                JOINT LeftForeArm
                {
                  OFFSET 27.0901 0 0
                  CHANNELS 3 Zrotation Xrotation Yrotation
                  JOINT LeftHand
                  {
                    OFFSET 24.5451 1.51738e-005 0
                    CHANNELS 3 Zrotation Xrotation Yrotation
                    End Site
                    {
                      OFFSET 0 0 0
                    }
                  }
                }
              }
            }
            JOINT Neck
            {
              OFFSET 5.0226 -0.0266342 0
              CHANNELS 3 Zrotation Xrotation Yrotation
              JOINT Head
              {
                OFFSET 6.69364 2.86102e-005 0
                CHANNELS 3 Zrotation Xrotation Yrotation
                End Site
                {
                  OFFSET 0 0 0
                }
              }
            }
          }
        }
      }
    }
  }
}
MOTION
Frames:	6
Frame Time:	0.0416667
110.171 84.3549 221.732 -89.207 48.5402 -91.7379 -167.088 -11.1835 88.8654 -40.5236 1.24237 -3.00154 101.536 24.3313 -7.02569 46.0964 6.79247 7.21673 175.075 52.0134 97.0083 -55.978 -22.7913 1.29924 66.7565 -3.85172 -3.3205 17.9148 2.14671 9.64536 -0.917643 9.58367 -90.0146 7.70476 -1.83842 0.0592542 -3.96489 -1.83402 0.140132 -26.5099 -1.77121 -0.496191 -6.49722 -1.7712 -0.496189 93.375 -27.5486 -100.721 34.8555 -8.9438 16.0578 -35.9398 -26.232 -72.2165 -41.6947 1.51737 -16.1032 -90.7551 -45.6705 76.5702 -13.8766 3.39605 -13.4171 35.8779 13.3765 -57.8765 11.4249 -8.1785 -61.481 34.1467 4.69615 -5.32646 -6.88849 6.65105 4.15322 
114.731 85.0339 225.132 -92.8806 50.2857 -89.3421 -165.897 -7.72598 88.825 -45.4718 -2.17672 -3.76709 104.323 24.1343 -9.40215 44.192 5.86037 6.93347 175.612 49.8625 97.1687 -52.1982 -17.7604 1.45031 68.691 -4.83001 -1.06723 21.1613 1.66201 6.96053 -0.547796 9.97744 -89.7898 6.92178 -1.00415 0.45913 -4.74887 -0.982966 0.502872 -27.2871 -1.09571 0.13609 -7.27444 -1.09571 0.136081 93.001 -26.9054 -101.723 35.7964 -3.92811 10.51 -24.1165 -13.819 -71.2044 -44.7712 2.88877 -15.992 -90.3216 -48.0534 77.8135 -20.7921 11.0411 5.15604 34.1739 15.3876 -53.9286 12.9314 -8.43052 -58.0206 32.256 3.48218 -6.91036 -4.81847 6.1447 4.39867 
118.446 86.2893 226.738 -95.7247 50.1003 -87.5569 -165.303 -5.06941 89.6728 -48.3043 -1.63588 -3.66819 100.955 22.4365 -8.39808 44.0849 5.90974 6.31047 175.997 48.9756 96.6182 -55.0479 -12.5154 0.840238 67.5653 -3.88975 -2.77552 17.8376 2.36615 9.06572 -0.158332 10.1199 -89.814 6.63437 -0.236959 0.375365 -5.03662 -0.220207 0.385431 -27.5717 -0.338819 0.286799 -7.55901 -0.338808 0.286805 92.9326 -25.267 -102.417 33.6554 -0.290781 11.9776 -31.3688 -12.2588 -78.3659 -41.9593 4.07231 -21.0704 -89.6365 -48.713 78.9995 -26.4303 17.1268 24.4109 30.3757 8.76298 -55.7921 11.3307 -7.32853 -56.652 28.8863 2.11681 -6.05885 -2.45206 4.41032 4.0639 
121.463 87.5351 227.411 -95.6716 46.2791 -87.6807 -166.491 -2.53663 90.7642 -48.3387 1.48563 -2.06325 100.281 23.0247 -7.41613 40.618 4.14426 6.25876 175.677 49.3854 94.2244 -59.5165 -14.6266 0.0407985 66.461 -2.948 -2.76894 19.0578 2.45313 7.1628 -0.0714108 10.1058 -89.8808 6.66229 -0.0917367 0.23812 -5.00869 -0.0811554 0.241927 -27.5437 -0.15907 0.199544 -7.53106 -0.15906 0.19954 92.7123 -25.3748 -102.857 29.5011 3.49905 14.2338 -36.7134 -12.3246 -81.1229 -41.3737 3.42535 -20.1402 -88.0425 -45.3276 80.7658 -31.2724 21.1513 36.4971 30.2597 4.47228 -57.1435 13.5487 -8.45524 -55.8883 26.8212 -0.135992 -7.6683 -1.27213 2.80968 4.74074 
123.526 88.658 227.169 -96.5672 45.0217 -87.2398 -167.63 -3.56703 91.1965 -45.1282 0.0122285 -1.19604 100.015 22.312 -8.62141 38.0417 2.59254 7.18914 176.94 47.8814 92.2137 -61.5437 -16.6789 -1.25947 65.5897 -2.48569 -3.22728 19.3558 1.69624 9.35678 0.191101 10.0264 -89.9819 6.8209 0.38938 0.0201257 -4.84999 0.389895 0.00296097 -27.3855 0.365325 0.136216 -7.37289 0.365333 0.136219 93.4285 -24.1766 -101.706 30.7646 0.716532 16.3395 -52.633 -15.6898 -86.4542 -39.4103 0.755389 -15.5163 -88.1824 -44.5895 80.3959 -32.3661 21.0623 43.1155 31.7569 3.52391 -57.5726 13.7632 -8.3549 -54.8236 24.5007 -1.25373 -6.02979 -0.590593 1.00335 3.38814 
125.082 89.662 226.2 -96.6124 45.6506 -86.9161 -167.873 -4.0598 92.0435 -42.5818 0.787598 -0.773765 97.3718 21.4673 -7.21924 37.8381 2.3604 7.69683 177.944 46.5893 91.7567 -61.5507 -16.4394 -1.92713 65.9067 -2.73487 -3.08713 20.2449 1.37096 9.30359 0.319743 9.83483 -89.9603 7.20419 0.65567 0.048197 -4.4666 0.657179 0.0192798 -27.003 0.610858 0.243032 -6.9903 0.610897 0.243034 93.1361 -24.2116 -102.339 31.3113 -0.864843 16.7545 -54.8641 -16.9874 -86.6833 -38.503 0.273864 -14.6441 -87.6919 -45.1983 81.2978 -31.176 17.6758 45.4216 34.8485 4.31133 -57.9667 15.3554 -8.92139 -53.462 22.9442 -1.28507 -5.44491 0.213105 0.688428 2.68397 
